<svg width="29" height="24" viewBox="0 0 29 24" fill="none" xmlns="http://www.w3.org/2000/svg">
<path d="M28.3778 6.29904L24.718 2.63925C23.0365 0.957723 20.7615 0.0675049 18.3875 0.0675049H18.1897C17.7941 0.0675049 17.4973 0.265331 17.2995 0.562071C16.8049 1.45229 15.9147 2.04577 14.8267 2.04577C13.7386 2.04577 12.8484 1.45229 12.2549 0.562071C12.0571 0.265331 11.7604 0.0675049 11.4636 0.0675049H11.2658C8.79296 0.0675049 6.51796 0.957723 4.83643 2.63925L1.17664 6.29904C0.780991 6.69469 0.780991 7.18925 1.07773 7.58491L5.03426 12.5306C5.331 12.7284 5.62774 12.9262 5.82556 12.9262C6.1223 12.9262 6.41904 12.8273 6.61687 12.6295L7.90274 11.3436V22.8175C7.90274 23.411 8.29839 23.8067 8.89187 23.8067H20.7615C21.3549 23.8067 21.7506 23.411 21.7506 22.8175V11.3436L23.0365 12.6295C23.2343 12.8273 23.531 12.9262 23.8278 12.9262C24.1245 12.9262 24.3223 12.7284 24.5202 12.5306L28.4767 7.58491C28.7734 7.18925 28.7734 6.69469 28.3778 6.29904Z" fill="url(#paint0_linear_204_4420)"/>
<defs>
<linearGradient id="paint0_linear_204_4420" x1="28.6882" y1="0.0675038" x2="8.94914" y2="21.4067" gradientUnits="userSpaceOnUse">
<stop stop-color="#0C254D"/>
<stop offset="0.49" stop-color="#0081EA"/>
<stop offset="1" stop-color="#004A74"/>
</linearGradient>
</defs>
</svg>
