<svg width="35" height="19" viewBox="0 0 35 19" fill="none" xmlns="http://www.w3.org/2000/svg">
<path d="M31.4934 4.08533V2.81684C31.4934 1.36129 30.3135 0.170044 28.8587 0.170044H26.7678C25.313 0.170044 24.1331 1.36129 24.1331 2.81684V6.37089H10.0964V2.81684C10.0964 1.36129 8.91648 0.170044 7.46169 0.170044H5.37076C3.91596 0.170044 2.73608 1.36129 2.73608 2.81684V4.08533C1.23736 4.08533 0.00976562 5.3099 0.00976562 6.82149V11.4956C0.00976562 13.0072 1.30476 14.2318 2.73608 14.2318V15.4995C2.73608 16.955 3.91596 18.1599 5.37076 18.1599H7.46169C8.91648 18.1599 10.0964 16.955 10.0964 15.4995V11.9583H24.1338V15.4995C24.1338 16.955 25.3137 18.1599 26.7685 18.1599H28.8602C30.3142 18.1599 31.4949 16.955 31.4949 15.4995V14.2318C32.9936 14.2318 34.2212 13.0057 34.2212 11.4956V6.82149C34.2189 5.3099 32.9239 4.08533 31.4934 4.08533Z" fill="url(#paint0_linear_204_4430)"/>
<defs>
<linearGradient id="paint0_linear_204_4430" x1="34.2212" y1="0.170043" x2="21.3103" y2="22.818" gradientUnits="userSpaceOnUse">
<stop stop-color="#0C254D"/>
<stop offset="0.49" stop-color="#0081EA"/>
<stop offset="1" stop-color="#004A74"/>
</linearGradient>
</defs>
</svg>
