<svg width="555" height="150" viewBox="0 0 555 150" fill="none" xmlns="http://www.w3.org/2000/svg">
<path d="M93.527 60.0526C93.527 60.0526 153 53.15 153 26.4791C153 19.2852 149.722 8.44985 134.774 6.8147C119.827 5.17954 94.8364 29.2486 81.0569 53.3379C64.0483 83.0725 57.394 133.434 72.4238 140.629C87.4536 147.823 92.7319 135.759 93.527 133.434C99.7621 115.21 90.1697 79.717 90.1697 79.717" stroke="#0080E8" stroke-width="12.4701"/>
<path d="M69.0662 40.8688C69.0662 40.8688 49.3228 11.1323 30.2169 11.1323C20.7906 11.1324 13.985 14.5323 9.59323 22.6432C4.31102 32.3986 7.52997 42.5912 15.3487 50.4612C26.9822 62.1711 56.596 64.3702 56.596 64.3702" stroke="#0080E8" stroke-width="12.4701"/>
<path d="M210.733 120.696C207.127 120.696 203.775 120.038 200.675 118.724C197.575 117.376 194.896 115.489 192.638 113.063C190.414 110.603 188.78 107.689 187.735 104.319L196.378 101.842C197.49 105.212 199.344 107.773 201.938 109.525C204.533 111.277 207.448 112.137 210.682 112.103C213.648 112.036 216.209 111.362 218.365 110.081C220.556 108.767 222.24 106.981 223.42 104.723C224.633 102.466 225.239 99.8543 225.239 96.889C225.239 92.3737 223.891 88.7176 221.196 85.9208C218.5 83.0903 214.962 81.675 210.581 81.675C209.368 81.675 208.088 81.8435 206.74 82.1805C205.426 82.5174 204.196 82.9892 203.05 83.5957L198.703 76.4689L225.694 52.0558L226.857 55.0885H190.616V46.4959H233.529V55.1391L210.531 77.1765L210.43 73.9922C215.248 73.6553 219.46 74.4471 223.066 76.3678C226.671 78.2885 229.468 81.0348 231.456 84.6066C233.478 88.1784 234.489 92.2726 234.489 96.889C234.489 101.539 233.444 105.65 231.355 109.222C229.266 112.794 226.436 115.607 222.864 117.663C219.292 119.685 215.248 120.696 210.733 120.696ZM252.079 119.28V61.7099C252.079 60.2946 252.146 58.8625 252.281 57.4136C252.416 55.9309 252.719 54.4988 253.191 53.1173C253.662 51.702 254.437 50.4047 255.516 49.2253C256.762 47.8438 258.127 46.8666 259.61 46.2937C261.092 45.6872 262.592 45.3165 264.108 45.1818C265.658 45.047 267.124 44.9796 268.506 44.9796H275.43V52.4602H269.011C266.349 52.4602 264.361 53.1173 263.047 54.4314C261.733 55.7119 261.076 57.6663 261.076 60.2946V119.28H252.079ZM242.829 72.1221V64.692H275.43V72.1221H242.829ZM286.045 55.038V45.7378H295.042V55.038H286.045ZM286.045 119.28V64.692H295.042V119.28H286.045ZM348.361 119.28V91.9356C348.361 89.341 348.126 86.8474 347.654 84.455C347.216 82.0625 346.424 79.9228 345.278 78.0358C344.166 76.1151 342.65 74.5988 340.729 73.4868C338.842 72.3748 336.45 71.8188 333.552 71.8188C331.294 71.8188 329.239 72.2063 327.385 72.9813C325.566 73.7227 323.999 74.8683 322.685 76.4184C321.371 77.9684 320.343 79.9228 319.602 82.2816C318.894 84.6066 318.54 87.3529 318.54 90.5203L312.626 88.7007C312.626 83.4104 313.57 78.8782 315.457 75.1042C317.378 71.2965 320.056 68.3818 323.493 66.36C326.964 64.3045 331.041 63.2768 335.725 63.2768C339.263 63.2768 342.279 63.8328 344.773 64.9447C347.266 66.0567 349.339 67.5394 350.99 69.3927C352.641 71.2123 353.938 73.2678 354.882 75.5591C355.825 77.8168 356.482 80.125 356.853 82.4837C357.257 84.8088 357.459 87.0159 357.459 89.1051V119.28H348.361ZM309.442 119.28V64.692H317.529V79.2994H318.54V119.28H309.442ZM370.853 55.038V45.7378H379.85V55.038H370.853ZM370.853 119.28V64.692H379.85V119.28H370.853ZM424.736 119.28C421.501 119.921 418.3 120.173 415.133 120.038C411.999 119.937 409.202 119.314 406.742 118.168C404.282 116.989 402.412 115.169 401.132 112.709C400.053 110.553 399.464 108.379 399.363 106.189C399.295 103.965 399.262 101.455 399.262 98.658V49.5286H408.258V98.2537C408.258 100.478 408.275 102.381 408.309 103.965C408.376 105.549 408.73 106.914 409.37 108.059C410.584 110.216 412.504 111.48 415.133 111.85C417.795 112.221 420.996 112.12 424.736 111.547V119.28ZM388.192 72.1221V64.692H424.736V72.1221H388.192ZM441.161 143.542L451.725 114.832L451.877 123.324L428.02 64.692H437.472L456.173 111.85H452.938L470.477 64.692H479.626L449.906 143.542H441.161Z" fill="white"/>
<path d="M503.087 120.797C498.842 120.797 495.32 120.055 492.524 118.573C489.727 117.09 487.638 115.136 486.256 112.709C484.874 110.283 484.184 107.655 484.184 104.824C484.184 101.623 484.874 98.9782 486.256 96.889C487.671 94.7661 489.508 93.0981 491.765 91.8851C494.023 90.672 496.449 89.7959 499.044 89.2567C502.211 88.6165 505.598 88.0605 509.203 87.5888C512.843 87.0833 516.195 86.6621 519.262 86.3251C522.328 85.9882 524.619 85.7186 526.136 85.5164L524.619 86.5273C524.788 80.0913 523.609 75.3064 521.081 72.1726C518.588 69.0052 514.174 67.4214 507.839 67.4214C503.256 67.4214 499.566 68.4492 496.769 70.5047C494.006 72.5264 492.069 75.6434 490.957 79.8554L486.307 78.6423C487.52 73.5879 489.996 69.7465 493.737 67.1182C497.511 64.4898 502.279 63.1757 508.041 63.1757C513.095 63.1757 517.307 64.2034 520.677 66.2589C524.047 68.3144 526.338 71.0943 527.551 74.5988C528.023 75.9466 528.36 77.5809 528.562 79.5016C528.764 81.4223 528.865 83.2925 528.865 85.1121V119.28H524.923V104.319L526.944 104.42C525.496 109.609 522.614 113.636 518.301 116.5C513.988 119.365 508.917 120.797 503.087 120.797ZM502.885 116.551C506.828 116.551 510.298 115.843 513.297 114.428C516.33 113.013 518.773 110.974 520.626 108.312C522.513 105.616 523.71 102.398 524.215 98.658C524.485 96.771 524.619 94.7493 524.619 92.5927C524.619 90.4361 524.619 88.8861 524.619 87.9426L526.843 89.6611C525.057 89.8296 522.581 90.0654 519.413 90.3687C516.28 90.6383 512.96 91.0089 509.456 91.4807C505.952 91.9188 502.784 92.4916 499.954 93.1992C498.302 93.6036 496.601 94.2438 494.849 95.1199C493.096 95.996 491.614 97.2259 490.401 98.8097C489.221 100.393 488.632 102.432 488.632 104.926C488.632 106.678 489.07 108.447 489.946 110.233C490.822 112.019 492.288 113.518 494.343 114.731C496.432 115.944 499.28 116.551 502.885 116.551ZM542.259 52.9656V46.4959H546.505V52.9656H542.259ZM542.259 119.28V64.692H546.505V119.28H542.259Z" fill="#0080E8"/>
</svg>
