<svg width="29" height="30" viewBox="0 0 29 30" fill="none" xmlns="http://www.w3.org/2000/svg">
<path d="M14.4755 0C13.4081 0 12.4591 0.45077 11.7967 1.15385H8.44641C7.59356 1.15385 7.00768 1.97895 7.32494 2.73588L8.44406 5.76923H20.507L21.6261 2.73588C21.9434 1.97895 21.3575 1.15385 20.5046 1.15385H17.1543C16.492 0.45077 15.543 0 14.4755 0ZM8.44406 8.07692C8.44406 8.07692 0 15 0 23.0769C0 27.6923 3.61888 30 6.03147 30H14.4755H22.9196C25.3322 30 28.951 27.6923 28.951 23.0769C28.951 15 20.507 8.07692 20.507 8.07692H8.44406ZM10.0155 12.6923H18.9426V14.1887H15.5994V14.3329C16.0505 14.6133 16.3784 15.084 16.4617 15.5882H18.9426V17.1139H16.5276C16.3684 18.6173 14.9975 19.7699 13.2339 19.9061H13.1255L16.8787 24.2308H14.0114L10.0085 19.5365V18.4818H11.9805C13.2012 18.4818 14.0952 17.9297 14.2376 17.1139H10.025V15.5859H14.2211C14.0872 14.8025 13.3104 14.2834 12.2561 14.2834H10.0155V12.6923Z" fill="url(#paint0_linear_245_2585)"/>
<defs>
<linearGradient id="paint0_linear_245_2585" x1="28.951" y1="-1.36647e-06" x2="4.09868" y2="22.1228" gradientUnits="userSpaceOnUse">
<stop stop-color="#0C254D"/>
<stop offset="0.49" stop-color="#0081EA"/>
<stop offset="1" stop-color="#004A74"/>
</linearGradient>
</defs>
</svg>
