<svg width="140" height="41" viewBox="0 0 140 41" fill="none" xmlns="http://www.w3.org/2000/svg">
<rect y="0.77002" width="140" height="40" rx="6" fill="white"/>
<path d="M34.7045 21.533C34.7166 20.6131 34.9669 19.7111 35.4321 18.911C35.8972 18.1109 36.5621 17.4387 37.3648 16.9569C36.8548 16.2458 36.1821 15.6607 35.4 15.2479C34.6178 14.8351 33.7479 14.606 32.8592 14.5788C30.9635 14.3846 29.1258 15.6863 28.1598 15.6863C27.1751 15.6863 25.6878 14.5981 24.0862 14.6303C23.0502 14.663 22.0406 14.9571 21.1557 15.484C20.2708 16.0109 19.5407 16.7525 19.0367 17.6368C16.8535 21.3272 18.482 26.7508 20.5734 29.7339C21.6197 31.1946 22.8426 32.8262 24.4428 32.7684C26.0086 32.705 26.5934 31.7936 28.4835 31.7936C30.3561 31.7936 30.9048 32.7684 32.5374 32.7316C34.2176 32.705 35.2762 31.2644 36.2859 29.7898C37.0377 28.749 37.6162 27.5987 38 26.3815C37.0238 25.9784 36.1908 25.3037 35.6048 24.4415C35.0187 23.5793 34.7056 22.5678 34.7045 21.533Z" fill="black"/>
<path d="M31.6181 12.6171C32.5342 11.5434 32.9856 10.1634 32.8763 8.77002C31.4767 8.91354 30.1838 9.56662 29.2553 10.5991C28.8013 11.1035 28.4536 11.6903 28.2321 12.326C28.0105 12.9617 27.9195 13.6338 27.9642 14.3038C28.6642 14.3109 29.3568 14.1627 29.9897 13.8706C30.6227 13.5784 31.1794 13.1498 31.6181 12.6171Z" fill="black"/>
<path d="M46.791 9.27148H48.8608C50.6494 9.27148 51.5195 10.335 51.5195 12.2642C51.5195 14.1934 50.6406 15.27 48.8608 15.27H46.791V9.27148ZM47.7886 10.1108V14.4307H48.751C49.9375 14.4307 50.4956 13.7144 50.4956 12.2773C50.4956 10.8315 49.9331 10.1108 48.751 10.1108H47.7886ZM54.6748 10.5459C55.8877 10.5459 56.7358 11.3325 56.7358 12.6377V13.2397C56.7358 14.5889 55.8877 15.3491 54.6748 15.3491C53.4443 15.3491 52.605 14.5977 52.605 13.2441V12.6421C52.605 11.3721 53.4575 10.5459 54.6748 10.5459ZM54.6792 11.3325C53.9849 11.3325 53.5894 11.9126 53.5894 12.6904V13.209C53.5894 13.9868 53.9585 14.5625 54.6792 14.5625C55.3911 14.5625 55.7559 13.9912 55.7559 13.209V12.6904C55.7559 11.9126 55.3735 11.3325 54.6792 11.3325ZM63.8989 10.625L62.6772 15.27H61.6841L60.7129 11.8423H60.6865L59.7329 15.27H58.7354L57.4609 10.625H58.5112L59.2583 14.167H59.3022L60.2383 10.625H61.1567L62.1191 14.167H62.1631L62.9233 10.625H63.8989ZM64.8657 15.27V10.625H65.8237V11.46H65.8721C65.9907 11.0952 66.3291 10.5547 67.2695 10.5547C68.2056 10.5547 68.834 11.0732 68.834 12.1323V15.27H67.8584V12.418C67.8584 11.7104 67.4893 11.3853 66.9399 11.3853C66.2192 11.3853 65.8413 11.939 65.8413 12.6904V15.27H64.8657ZM70.3105 15.27V8.95508H71.2861V15.27H70.3105ZM74.6348 10.5459C75.8477 10.5459 76.6958 11.3325 76.6958 12.6377V13.2397C76.6958 14.5889 75.8477 15.3491 74.6348 15.3491C73.4043 15.3491 72.5649 14.5977 72.5649 13.2441V12.6421C72.5649 11.3721 73.4175 10.5459 74.6348 10.5459ZM74.6392 11.3325C73.9448 11.3325 73.5493 11.9126 73.5493 12.6904V13.209C73.5493 13.9868 73.9185 14.5625 74.6392 14.5625C75.3511 14.5625 75.7158 13.9912 75.7158 13.209V12.6904C75.7158 11.9126 75.3335 11.3325 74.6392 11.3325ZM79.2227 15.3403C78.3218 15.3403 77.7021 14.7866 77.7021 13.9209C77.7021 13.0991 78.2734 12.5454 79.3457 12.5454H80.519V12.1104C80.519 11.5786 80.1807 11.3281 79.6445 11.3281C79.1172 11.3281 78.8799 11.5479 78.8052 11.8555H77.8779C77.9351 11.0776 78.5195 10.5547 79.6753 10.5547C80.6685 10.5547 81.4902 10.9678 81.4902 12.1235V15.27H80.563V14.668H80.519C80.3125 15.0239 79.9082 15.3403 79.2227 15.3403ZM79.5259 14.5845C80.0796 14.5845 80.519 14.2065 80.519 13.7012V13.2002H79.4995C78.9326 13.2002 78.6821 13.4858 78.6821 13.8726C78.6821 14.356 79.0864 14.5845 79.5259 14.5845ZM84.4961 10.5635C85.1509 10.5635 85.6519 10.8535 85.832 11.3237H85.8804V8.95508H86.856V15.27H85.9067V14.5273H85.8584C85.7178 14.9976 85.1597 15.3315 84.4829 15.3315C83.415 15.3315 82.7207 14.5713 82.7207 13.3452V12.5498C82.7207 11.3237 83.4282 10.5635 84.4961 10.5635ZM84.7686 11.3633C84.1182 11.3633 83.7139 11.8467 83.7139 12.6904V13.2002C83.7139 14.0483 84.1226 14.5317 84.7905 14.5317C85.4497 14.5317 85.8804 14.0527 85.8804 13.2617V12.5586C85.8804 11.8423 85.4102 11.3633 84.7686 11.3633ZM92.2129 10.5459C93.4258 10.5459 94.2739 11.3325 94.2739 12.6377V13.2397C94.2739 14.5889 93.4258 15.3491 92.2129 15.3491C90.9824 15.3491 90.1431 14.5977 90.1431 13.2441V12.6421C90.1431 11.3721 90.9956 10.5459 92.2129 10.5459ZM92.2173 11.3325C91.5229 11.3325 91.1274 11.9126 91.1274 12.6904V13.209C91.1274 13.9868 91.4966 14.5625 92.2173 14.5625C92.9292 14.5625 93.2939 13.9912 93.2939 13.209V12.6904C93.2939 11.9126 92.9116 11.3325 92.2173 11.3325ZM95.5308 15.27V10.625H96.4888V11.46H96.5371C96.6558 11.0952 96.9941 10.5547 97.9346 10.5547C98.8706 10.5547 99.499 11.0732 99.499 12.1323V15.27H98.5234V12.418C98.5234 11.7104 98.1543 11.3853 97.605 11.3853C96.8843 11.3853 96.5063 11.939 96.5063 12.6904V15.27H95.5308ZM103.274 10.6558V9.49561H104.228V10.6558H105.269V11.4204H104.228V13.8857C104.228 14.3911 104.417 14.5317 104.939 14.5317C105.071 14.5317 105.247 14.5229 105.322 14.5142V15.2612C105.243 15.2744 104.917 15.3008 104.698 15.3008C103.568 15.3008 103.261 14.8965 103.261 13.9648V11.4204H102.553V10.6558H103.274ZM106.5 15.27V8.95508H107.471V11.46H107.519C107.62 11.1304 107.998 10.5547 108.93 10.5547C109.835 10.5547 110.481 11.0776 110.481 12.1367V15.27H109.51V12.4224C109.51 11.7148 109.119 11.3853 108.565 11.3853C107.866 11.3853 107.471 11.9346 107.471 12.6904V15.27H106.5ZM113.755 15.3491C112.489 15.3491 111.703 14.5713 111.703 13.2617V12.6333C111.703 11.3149 112.564 10.5459 113.698 10.5459C114.862 10.5459 115.684 11.3545 115.684 12.6333V13.1782H112.669V13.4067C112.669 14.0747 113.065 14.5669 113.75 14.5669C114.26 14.5669 114.612 14.3252 114.678 14.0352H115.631C115.574 14.5713 115.007 15.3491 113.755 15.3491ZM112.669 12.541H114.73V12.4795C114.73 11.7808 114.322 11.3149 113.702 11.3149C113.083 11.3149 112.669 11.7808 112.669 12.4795V12.541Z" fill="black"/>
<path d="M48.2061 31.27H46.1758L50.3066 19.2729H52.5391L56.6611 31.27H54.5518L53.4883 27.9478H49.2783L48.2061 31.27ZM51.4316 21.3472H51.3525L49.7266 26.4185H53.04L51.4316 21.3472ZM62.2644 31.4019C61.0603 31.4019 60.1462 30.8306 59.654 29.978H59.5837V34.355H57.6325V21.98H59.531V23.3423H59.6013C60.1111 22.4546 61.0603 21.8569 62.3083 21.8569C64.3913 21.8569 65.8767 23.4302 65.8767 26.2075V27.0337C65.8767 29.7935 64.4089 31.4019 62.2644 31.4019ZM61.8161 29.7935C63.0554 29.7935 63.8991 28.8003 63.8991 26.9282V26.2778C63.8991 24.4761 63.1081 23.4478 61.781 23.4478C60.4187 23.4478 59.5661 24.5552 59.5661 26.269V26.9282C59.5661 28.686 60.4275 29.7935 61.8161 29.7935ZM72.183 31.4019C70.9789 31.4019 70.0649 30.8306 69.5727 29.978H69.5024V34.355H67.5512V21.98H69.4496V23.3423H69.52C70.0297 22.4546 70.9789 21.8569 72.227 21.8569C74.31 21.8569 75.7954 23.4302 75.7954 26.2075V27.0337C75.7954 29.7935 74.3276 31.4019 72.183 31.4019ZM71.7348 29.7935C72.9741 29.7935 73.8178 28.8003 73.8178 26.9282V26.2778C73.8178 24.4761 73.0268 23.4478 71.6996 23.4478C70.3373 23.4478 69.4848 24.5552 69.4848 26.269V26.9282C69.4848 28.686 70.3461 29.7935 71.7348 29.7935ZM79.8387 27.939H81.7899C81.8778 28.9761 82.7919 29.8638 84.4882 29.8638C86.0438 29.8638 86.9667 29.1343 86.9667 28.0005C86.9667 27.0864 86.3514 26.5942 85.0682 26.2866L83.0995 25.7944C81.5526 25.4341 80.1639 24.5112 80.1639 22.5601C80.1639 20.2661 82.1679 19.0093 84.497 19.0093C86.8261 19.0093 88.7684 20.2661 88.8124 22.5073H86.8964C86.8085 21.4878 86.0262 20.644 84.4706 20.644C83.0995 20.644 82.1679 21.2944 82.1679 22.4106C82.1679 23.1929 82.7128 23.7554 83.829 24.0103L85.7889 24.4937C87.5907 24.9331 88.9618 25.7856 88.9618 27.8247C88.9618 30.1802 87.0546 31.5073 84.3387 31.5073C80.9989 31.5073 79.8827 29.5562 79.8387 27.939ZM91.3395 21.98V19.7212H93.2555V21.98H95.066V23.5444H93.2555V28.5015C93.2555 29.5122 93.6334 29.7935 94.6793 29.7935C94.8463 29.7935 95.0045 29.7935 95.1188 29.7759V31.27C94.9605 31.2964 94.5914 31.3315 94.1959 31.3315C91.9371 31.3315 91.3131 30.5229 91.3131 28.6597V23.5444H90.0299V21.98H91.3395ZM100.335 21.8218C103.007 21.8218 104.457 23.7026 104.457 26.2339V26.981C104.457 29.6001 103.016 31.4282 100.335 31.4282C97.6546 31.4282 96.1956 29.6001 96.1956 26.981V26.2339C96.1956 23.7114 97.6634 21.8218 100.335 21.8218ZM100.335 23.3862C98.8851 23.3862 98.1644 24.5728 98.1644 26.2603V26.9722C98.1644 28.6333 98.8763 29.855 100.335 29.855C101.794 29.855 102.497 28.6421 102.497 26.9722V26.2603C102.497 24.564 101.785 23.3862 100.335 23.3862ZM106.106 31.27V21.98H108.057V23.2017H108.127C108.364 22.6216 109.059 21.8481 110.351 21.8481C110.606 21.8481 110.825 21.8657 111.01 21.9009V23.6235C110.843 23.5796 110.5 23.5532 110.175 23.5532C108.61 23.5532 108.083 24.52 108.083 25.7681V31.27H106.106ZM115.743 31.4282C113.256 31.4282 111.674 29.7847 111.674 27.0337V26.0933C111.674 23.5005 113.22 21.8218 115.664 21.8218C118.142 21.8218 119.636 23.562 119.636 26.1812V27.0688H113.598V27.2886C113.598 28.853 114.442 29.8901 115.769 29.8901C116.762 29.8901 117.439 29.3979 117.677 28.5981H119.531C119.25 30.1011 118.037 31.4282 115.743 31.4282ZM113.598 25.7065H117.729V25.689C117.729 24.3706 116.912 23.3335 115.673 23.3335C114.416 23.3335 113.598 24.3706 113.598 25.689V25.7065Z" fill="black"/>
</svg>
