<svg width="140" height="41" viewBox="0 0 140 41" fill="none" xmlns="http://www.w3.org/2000/svg">
<rect y="0.77002" width="140" height="40" rx="6" fill="white"/>
<path d="M26.8051 20.2317L17.0898 30.7759C17.0908 30.7778 17.0908 30.7806 17.0917 30.7825C17.3901 31.9274 18.412 32.77 19.6256 32.77C20.1111 32.77 20.5664 32.6357 20.957 32.4005L20.988 32.3818L31.9232 25.9293L26.8051 20.2317Z" fill="#EA4335"/>
<path d="M36.6312 18.4362L36.6221 18.4297L31.9009 15.6313L26.582 20.4713L31.9201 25.9282L36.6157 23.1578C37.4388 22.7024 37.9981 21.815 37.9981 20.7923C37.9981 19.7752 37.447 18.8925 36.6312 18.4362Z" fill="#FBBC04"/>
<path d="M17.0894 10.7633C17.031 10.9835 17 11.2149 17 11.4538V30.0863C17 30.3252 17.031 30.5566 17.0903 30.7759L27.1386 20.5013L17.0894 10.7633Z" fill="#4285F4"/>
<path d="M26.8771 20.77L31.9049 15.6295L20.9825 9.15362C20.5856 8.91007 20.122 8.77011 19.6265 8.77011C18.4129 8.77011 17.3891 9.61458 17.0908 10.7604C17.0908 10.7614 17.0898 10.7623 17.0898 10.7632L26.8771 20.77Z" fill="#34A853"/>
<path d="M52.61 12.48C52.61 13.48 52.3133 14.2767 51.72 14.87C51.0533 15.5767 50.1767 15.93 49.09 15.93C48.05 15.93 47.17 15.57 46.45 14.85C45.73 14.13 45.37 13.2434 45.37 12.19C45.37 11.1367 45.73 10.25 46.45 9.53002C47.17 8.81002 48.05 8.45002 49.09 8.45002C49.6167 8.45002 50.1133 8.54335 50.58 8.73002C51.0467 8.91669 51.43 9.18002 51.73 9.52002L51.07 10.18C50.85 9.91335 50.5633 9.70669 50.21 9.56002C49.8633 9.40669 49.49 9.33002 49.09 9.33002C48.31 9.33002 47.65 9.60002 47.11 10.14C46.5767 10.6867 46.31 11.37 46.31 12.19C46.31 13.01 46.5767 13.6934 47.11 14.24C47.65 14.78 48.31 15.05 49.09 15.05C49.8033 15.05 50.3967 14.85 50.87 14.45C51.3433 14.05 51.6167 13.5 51.69 12.8H49.09V11.94H52.56C52.5933 12.1267 52.61 12.3067 52.61 12.48ZM57.9078 8.61002V9.49002H54.6478V11.76H57.5878V12.62H54.6478V14.89H57.9078V15.77H53.7278V8.61002H57.9078ZM61.5877 9.49002V15.77H60.6677V9.49002H58.6677V8.61002H63.5877V9.49002H61.5877ZM67.6654 15.77H66.7454V8.61002H67.6654V15.77ZM71.5487 9.49002V15.77H70.6287V9.49002H68.6287V8.61002H73.5487V9.49002H71.5487ZM83.521 12.19C83.521 13.25 83.1677 14.1367 82.461 14.85C81.7477 15.57 80.8743 15.93 79.841 15.93C78.801 15.93 77.9277 15.57 77.221 14.85C76.5143 14.1367 76.161 13.25 76.161 12.19C76.161 11.13 76.5143 10.2434 77.221 9.53002C77.9277 8.81002 78.801 8.45002 79.841 8.45002C80.881 8.45002 81.7543 8.81335 82.461 9.54002C83.1677 10.2534 83.521 11.1367 83.521 12.19ZM77.101 12.19C77.101 13.0167 77.361 13.7 77.881 14.24C78.4077 14.78 79.061 15.05 79.841 15.05C80.621 15.05 81.271 14.78 81.791 14.24C82.3177 13.7067 82.581 13.0234 82.581 12.19C82.581 11.3567 82.3177 10.6734 81.791 10.14C81.271 9.60002 80.621 9.33002 79.841 9.33002C79.061 9.33002 78.4077 9.60002 77.881 10.14C77.361 10.68 77.101 11.3634 77.101 12.19ZM85.5267 15.77H84.6067V8.61002H85.7267L89.2067 14.18H89.2467L89.2067 12.8V8.61002H90.1267V15.77H89.1667L85.5267 9.93002H85.4867L85.5267 11.31V15.77Z" fill="black"/>
<path d="M102.518 32.1797H104.147V21.1682H102.518V32.1797ZM117.189 25.1346L115.322 29.9088H115.266L113.328 25.1346H111.573L114.479 31.8071L112.823 35.519H114.521L119 25.1346H117.189ZM107.952 30.9289C107.418 30.9289 106.674 30.6602 106.674 29.9934C106.674 29.1443 107.6 28.8183 108.401 28.8183C109.116 28.8183 109.454 28.9743 109.889 29.1865C109.762 30.2066 108.892 30.9289 107.952 30.9289ZM108.148 24.8942C106.969 24.8942 105.747 25.4183 105.242 26.5801L106.688 27.1888C106.997 26.5801 107.572 26.381 108.176 26.381C109.019 26.381 109.875 26.891 109.889 27.7983V27.9111C109.594 27.7411 108.963 27.4865 108.19 27.4865C106.632 27.4865 105.045 28.3506 105.045 29.9652C105.045 31.4389 106.323 32.3884 107.755 32.3884C108.85 32.3884 109.454 31.8925 109.833 31.3112H109.889V32.1612H111.461V27.9393C111.461 25.9847 110.015 24.8942 108.148 24.8942ZM98.0821 26.4753H95.7655V22.7008H98.0821C99.2998 22.7008 99.9911 23.7182 99.9911 24.5876C99.9911 25.4412 99.2998 26.4753 98.0821 26.4753ZM98.0402 21.1682H94.1375V32.1797H95.7655V28.008H98.0402C99.8453 28.008 101.62 26.6885 101.62 24.5876C101.62 22.4868 99.8453 21.1682 98.0402 21.1682ZM76.7583 30.9306C75.6332 30.9306 74.6913 29.9802 74.6913 28.6748C74.6913 27.3553 75.6332 26.3898 76.7583 26.3898C77.8695 26.3898 78.7406 27.3553 78.7406 28.6748C78.7406 29.9802 77.8695 30.9306 76.7583 30.9306ZM78.6289 25.7512H78.5722C78.2064 25.3117 77.5038 24.9144 76.6178 24.9144C74.7611 24.9144 73.0599 26.5598 73.0599 28.6748C73.0599 30.7747 74.7611 32.4069 76.6178 32.4069C77.5038 32.4069 78.2064 32.0097 78.5722 31.5552H78.6289V32.0951C78.6289 33.5283 77.8695 34.2946 76.6457 34.2946C75.6471 34.2946 75.0282 33.5705 74.7751 32.9601L73.3549 33.5564C73.7626 34.55 74.8458 35.77 76.6457 35.77C78.5582 35.77 80.1757 34.6346 80.1757 31.8679V25.1408H78.6289V25.7512ZM81.3008 32.1797H82.9323V21.1673H81.3008V32.1797ZM85.3362 28.547C85.2943 27.0998 86.4474 26.3617 87.2766 26.3617C87.9243 26.3617 88.4725 26.6876 88.6549 27.1562L85.3362 28.547ZM90.3989 27.298C90.0899 26.4612 89.1472 24.9144 87.2208 24.9144C85.3083 24.9144 83.7196 26.4321 83.7196 28.6607C83.7196 30.7606 85.2943 32.4069 87.4032 32.4069C89.1053 32.4069 90.0899 31.357 90.4976 30.7465L89.2319 29.8947C88.8103 30.5193 88.2333 30.9306 87.4032 30.9306C86.5739 30.9306 85.983 30.5475 85.6033 29.7961L90.5674 27.7235L90.3989 27.298ZM50.8501 26.0639V27.653H54.6184C54.5058 28.547 54.2107 29.1998 53.7612 29.6534C53.2121 30.2074 52.3541 30.8179 50.8501 30.8179C48.5291 30.8179 46.7152 28.9302 46.7152 26.5889C46.7152 24.2467 48.5291 22.36 50.8501 22.36C52.1018 22.36 53.0157 22.8568 53.6905 23.4954L54.8017 22.374C53.8589 21.4659 52.6081 20.77 50.8501 20.77C47.6719 20.77 45 23.3817 45 26.5889C45 29.7961 47.6719 32.4069 50.8501 32.4069C52.5653 32.4069 53.8589 31.8388 54.8715 30.7747C55.9129 29.7247 56.2358 28.2493 56.2358 27.0566C56.2358 26.6876 56.2079 26.3476 56.1512 26.0639H50.8501ZM60.5208 30.9306C59.3957 30.9306 58.425 29.9943 58.425 28.6607C58.425 27.3121 59.3957 26.3898 60.5208 26.3898C61.6451 26.3898 62.6158 27.3121 62.6158 28.6607C62.6158 29.9943 61.6451 30.9306 60.5208 30.9306ZM60.5208 24.9144C58.4669 24.9144 56.7936 26.4894 56.7936 28.6607C56.7936 30.8179 58.4669 32.4069 60.5208 32.4069C62.5739 32.4069 64.2472 30.8179 64.2472 28.6607C64.2472 26.4894 62.5739 24.9144 60.5208 24.9144ZM68.65 30.9306C67.5249 30.9306 66.5542 29.9943 66.5542 28.6607C66.5542 27.3121 67.5249 26.3898 68.65 26.3898C69.7752 26.3898 70.745 27.3121 70.745 28.6607C70.745 29.9943 69.7752 30.9306 68.65 30.9306ZM68.65 24.9144C66.597 24.9144 64.9237 26.4894 64.9237 28.6607C64.9237 30.8179 66.597 32.4069 68.65 32.4069C70.7031 32.4069 72.3764 30.8179 72.3764 28.6607C72.3764 26.4894 70.7031 24.9144 68.65 24.9144Z" fill="black"/>
</svg>
