<svg width="190" height="76" viewBox="0 0 190 76" fill="none" xmlns="http://www.w3.org/2000/svg">
<path d="M26.5889 17.085C26.5889 17.085 43.5611 15.1152 43.5611 7.50392C43.5611 5.45092 42.6257 2.35877 38.3599 1.89213C34.0942 1.4255 26.9625 8.29425 23.0302 15.1688C18.1763 23.6544 16.2773 38.0266 20.5665 40.0796C24.8556 42.1327 26.3619 38.6898 26.5889 38.0266C28.3682 32.8258 25.6308 22.6968 25.6308 22.6968" stroke="#0080E8" stroke-width="3.55869"/>
<path d="M19.6107 11.6116C19.6107 11.6116 13.9764 3.12547 8.52402 3.12549C5.83395 3.1255 3.8918 4.09576 2.63849 6.41044C1.13106 9.19441 2.04968 12.1031 4.28096 14.3491C7.6009 17.6908 16.052 18.3184 16.052 18.3184" stroke="#0080E8" stroke-width="3.55869"/>
<path d="M60.0373 34.5723C59.0084 34.5723 58.0516 34.3848 57.1669 34.0098C56.2822 33.6251 55.5177 33.0866 54.8734 32.3943C54.2387 31.6923 53.7724 30.8605 53.4743 29.8989L55.9408 29.1921C56.2582 30.1537 56.787 30.8845 57.5275 31.3846C58.2679 31.8846 59.0997 32.1298 60.0229 32.1202C60.8691 32.101 61.6 31.9086 62.2154 31.5432C62.8404 31.1682 63.3213 30.6585 63.6578 30.0143C64.004 29.37 64.1771 28.6247 64.1771 27.7785C64.1771 26.4899 63.7925 25.4466 63.0232 24.6484C62.2539 23.8406 61.2442 23.4368 59.994 23.4368C59.6479 23.4368 59.2824 23.4848 58.8978 23.581C58.5228 23.6772 58.1718 23.8118 57.8448 23.9849L56.6043 21.9511L64.3069 14.9841L64.6387 15.8496H54.2964V13.3974H66.5427V15.864L59.9796 22.153L59.9508 21.2443C61.3259 21.1481 62.5279 21.3741 63.5569 21.9222C64.5858 22.4703 65.3839 23.2541 65.9513 24.2734C66.5283 25.2927 66.8167 26.4611 66.8167 27.7785C66.8167 29.1055 66.5186 30.2787 65.9224 31.298C65.3262 32.3173 64.5185 33.1203 63.4992 33.7069C62.4798 34.2839 61.3259 34.5723 60.0373 34.5723ZM71.8364 34.1685V17.7392C71.8364 17.3353 71.8556 16.9266 71.8941 16.5131C71.9326 16.09 72.0191 15.6813 72.1537 15.287C72.2884 14.8831 72.5095 14.5129 72.8173 14.1764C73.1731 13.7821 73.5625 13.5032 73.9856 13.3397C74.4087 13.1667 74.8367 13.0609 75.2694 13.0224C75.7117 12.9839 76.13 12.9647 76.5243 12.9647H78.5004V15.0995H76.6686C75.9089 15.0995 75.3415 15.287 74.9665 15.6621C74.5915 16.0275 74.4039 16.5852 74.4039 17.3353V34.1685H71.8364ZM69.1968 20.7106V18.5902H78.5004V20.7106H69.1968ZM81.5295 15.8352V13.1811H84.0971V15.8352H81.5295ZM81.5295 34.1685V18.5902H84.0971V34.1685H81.5295ZM99.3134 34.1685V26.3649C99.3134 25.6245 99.2461 24.9129 99.1114 24.2301C98.9864 23.5474 98.7604 22.9367 98.4335 22.3982C98.1162 21.8501 97.6834 21.4174 97.1353 21.1C96.5968 20.7827 95.914 20.624 95.087 20.624C94.4428 20.624 93.8562 20.7346 93.3273 20.9558C92.808 21.1673 92.3609 21.4943 91.9858 21.9366C91.6108 22.379 91.3175 22.9367 91.1059 23.6099C90.904 24.2734 90.803 25.0571 90.803 25.961L89.1154 25.4417C89.1154 23.932 89.3846 22.6386 89.9231 21.5616C90.4713 20.475 91.2358 19.6432 92.2166 19.0662C93.2071 18.4796 94.3706 18.1863 95.7073 18.1863C96.717 18.1863 97.5776 18.345 98.2892 18.6623C99.0008 18.9797 99.5922 19.4028 100.063 19.9317C100.535 20.4509 100.905 21.0375 101.174 21.6914C101.443 22.3357 101.631 22.9944 101.737 23.6676C101.852 24.3311 101.91 24.9609 101.91 25.5571V34.1685H99.3134ZM88.2067 34.1685V18.5902H90.5145V22.7588H90.803V34.1685H88.2067ZM105.732 15.8352V13.1811H108.299V15.8352H105.732ZM105.732 34.1685V18.5902H108.299V34.1685H105.732ZM121.109 34.1685C120.186 34.3512 119.272 34.4233 118.368 34.3848C117.474 34.356 116.676 34.1781 115.974 33.8511C115.272 33.5146 114.738 32.9953 114.373 32.2933C114.065 31.6779 113.897 31.0576 113.868 30.4326C113.849 29.7979 113.839 29.0815 113.839 28.2833V14.2629H116.407V28.1679C116.407 28.8026 116.411 29.3459 116.421 29.7979C116.44 30.2499 116.541 30.6393 116.724 30.9663C117.07 31.5817 117.618 31.9423 118.368 32.0481C119.128 32.1539 120.042 32.125 121.109 31.9615V34.1685ZM110.68 20.7106V18.5902H121.109V20.7106H110.68ZM125.796 41.0921L128.811 32.8991L128.854 35.3224L122.046 18.5902H124.743L130.08 32.0481H129.157L134.163 18.5902H136.773L128.292 41.0921H125.796Z" fill="white"/>
<path d="M143.469 34.6012C142.257 34.6012 141.252 34.3896 140.454 33.9665C139.656 33.5434 139.06 32.9857 138.665 32.2933C138.271 31.6009 138.074 30.8509 138.074 30.0431C138.074 29.1296 138.271 28.3747 138.665 27.7785C139.069 27.1727 139.593 26.6967 140.238 26.3505C140.882 26.0043 141.574 25.7543 142.315 25.6004C143.219 25.4177 144.185 25.259 145.214 25.1244C146.253 24.9802 147.209 24.86 148.084 24.7638C148.96 24.6676 149.613 24.5907 150.046 24.533L149.613 24.8215C149.662 22.9848 149.325 21.6193 148.604 20.725C147.892 19.8211 146.632 19.3691 144.825 19.3691C143.517 19.3691 142.464 19.6624 141.666 20.249C140.877 20.826 140.324 21.7155 140.007 22.9175L138.68 22.5713C139.026 21.1289 139.733 20.0326 140.8 19.2826C141.877 18.5325 143.238 18.1575 144.882 18.1575C146.325 18.1575 147.527 18.4508 148.488 19.0374C149.45 19.6239 150.104 20.4173 150.45 21.4174C150.585 21.802 150.681 22.2684 150.739 22.8165C150.796 23.3646 150.825 23.8983 150.825 24.4176V34.1685H149.7V29.8989L150.277 29.9277C149.863 31.4086 149.041 32.5577 147.81 33.3751C146.58 34.1925 145.132 34.6012 143.469 34.6012ZM143.411 33.3895C144.536 33.3895 145.527 33.1876 146.382 32.7837C147.248 32.3798 147.945 31.7981 148.474 31.0384C149.012 30.2691 149.354 29.3507 149.498 28.2833C149.575 27.7448 149.613 27.1679 149.613 26.5524C149.613 25.937 149.613 25.4946 149.613 25.2254L150.248 25.7158C149.738 25.7639 149.032 25.8312 148.128 25.9177C147.233 25.9947 146.286 26.1005 145.286 26.2351C144.286 26.3601 143.382 26.5236 142.574 26.7255C142.103 26.8409 141.618 27.0236 141.118 27.2736C140.617 27.5237 140.194 27.8746 139.848 28.3266C139.512 28.7786 139.343 29.3604 139.343 30.072C139.343 30.572 139.468 31.0768 139.718 31.5865C139.968 32.0962 140.387 32.5241 140.973 32.8703C141.569 33.2165 142.382 33.3895 143.411 33.3895ZM154.647 15.2438V13.3974H155.859V15.2438H154.647ZM154.647 34.1685V18.5902H155.859V34.1685H154.647Z" fill="#0080E8"/>
<path opacity="0.65" d="M14 71.01C13.2053 71.01 12.5333 70.81 11.984 70.41C11.4347 70.0047 11.0187 69.458 10.736 68.77C10.4533 68.0767 10.312 67.3007 10.312 66.442C10.312 65.5674 10.4533 64.7887 10.736 64.106C11.024 63.418 11.4453 62.8767 12 62.482C12.5547 62.0874 13.2373 61.89 14.048 61.89C14.8373 61.89 15.5147 62.09 16.08 62.49C16.6453 62.89 17.0773 63.434 17.376 64.122C17.68 64.81 17.832 65.5834 17.832 66.442C17.832 67.306 17.68 68.082 17.376 68.77C17.072 69.458 16.6347 70.0047 16.064 70.41C15.4933 70.81 14.8053 71.01 14 71.01ZM10.112 70.77V59.25H11.296V64.266H11.168V70.77H10.112ZM13.88 69.914C14.4827 69.914 14.984 69.762 15.384 69.458C15.784 69.154 16.0827 68.7407 16.28 68.218C16.4827 67.69 16.584 67.098 16.584 66.442C16.584 65.7914 16.4853 65.2047 16.288 64.682C16.0907 64.1594 15.7893 63.746 15.384 63.442C14.984 63.138 14.4747 62.986 13.856 62.986C13.2533 62.986 12.752 63.1327 12.352 63.426C11.9573 63.7194 11.6613 64.1274 11.464 64.65C11.2667 65.1674 11.168 65.7647 11.168 66.442C11.168 67.1087 11.2667 67.706 11.464 68.234C11.6613 68.7567 11.96 69.1674 12.36 69.466C12.76 69.7647 13.2667 69.914 13.88 69.914ZM22.7328 70.986C22.2154 70.986 21.7621 70.906 21.3728 70.746C20.9888 70.586 20.6608 70.37 20.3888 70.098C20.1221 69.826 19.9061 69.5167 19.7408 69.17C19.5754 68.818 19.4554 68.4474 19.3808 68.058C19.3061 67.6634 19.2688 67.2714 19.2688 66.882V62.13H20.4528V66.538C20.4528 67.0127 20.4981 67.4527 20.5888 67.858C20.6794 68.2634 20.8234 68.618 21.0208 68.922C21.2234 69.2207 21.4821 69.4527 21.7968 69.618C22.1168 69.7834 22.5034 69.866 22.9568 69.866C23.3728 69.866 23.7381 69.794 24.0528 69.65C24.3728 69.506 24.6394 69.3007 24.8528 69.034C25.0714 68.762 25.2368 68.434 25.3488 68.05C25.4608 67.6607 25.5168 67.2234 25.5168 66.738L26.3488 66.922C26.3488 67.8074 26.1941 68.5514 25.8848 69.154C25.5754 69.7567 25.1488 70.2127 24.6048 70.522C24.0608 70.8314 23.4368 70.986 22.7328 70.986ZM25.6368 70.77V68.642H25.5168V62.13H26.6928V70.77H25.6368ZM28.9288 60.49V59.17H30.1048V60.49H28.9288ZM28.9288 70.77V62.13H30.1048V70.77H28.9288ZM32.5031 70.77V59.01H33.6791V70.77H32.5031ZM40.6215 70.77C40.1362 70.8714 39.6562 70.9114 39.1815 70.89C38.7122 70.8687 38.2908 70.7674 37.9175 70.586C37.5495 70.4047 37.2695 70.122 37.0775 69.738C36.9228 69.418 36.8375 69.0954 36.8215 68.77C36.8108 68.4394 36.8055 68.0634 36.8055 67.642V59.73H37.9735V67.594C37.9735 67.9567 37.9762 68.2607 37.9815 68.506C37.9922 68.746 38.0482 68.9594 38.1495 69.146C38.3415 69.5034 38.6455 69.7167 39.0615 69.786C39.4828 69.8554 40.0028 69.8394 40.6215 69.738V70.77ZM34.9575 63.138V62.13H40.6215V63.138H34.9575ZM47.0469 70.77L44.4069 62.122L45.5829 62.13L47.6309 68.842L49.6869 62.13H50.7589L52.8149 68.842L54.8789 62.13H56.0469L53.4069 70.77H52.3829L50.2229 63.89L48.0709 70.77H47.0469ZM57.4881 60.49V59.17H58.6641V60.49H57.4881ZM57.4881 70.77V62.13H58.6641V70.77H57.4881ZM65.6065 70.77C65.1212 70.8714 64.6412 70.9114 64.1665 70.89C63.6972 70.8687 63.2758 70.7674 62.9025 70.586C62.5345 70.4047 62.2545 70.122 62.0625 69.738C61.9078 69.418 61.8225 69.0954 61.8065 68.77C61.7958 68.4394 61.7905 68.0634 61.7905 67.642V59.73H62.9585V67.594C62.9585 67.9567 62.9612 68.2607 62.9665 68.506C62.9772 68.746 63.0332 68.9594 63.1345 69.146C63.3265 69.5034 63.6305 69.7167 64.0465 69.786C64.4678 69.8554 64.9878 69.8394 65.6065 69.738V70.77ZM59.9425 63.138V62.13H65.6065V63.138H59.9425ZM73.3888 70.77V66.362C73.3888 65.882 73.3434 65.442 73.2528 65.042C73.1621 64.6367 73.0154 64.2847 72.8128 63.986C72.6154 63.682 72.3568 63.4474 72.0368 63.282C71.7221 63.1167 71.3381 63.034 70.8848 63.034C70.4688 63.034 70.1008 63.106 69.7808 63.25C69.4661 63.394 69.1994 63.602 68.9808 63.874C68.7674 64.1407 68.6048 64.466 68.4928 64.85C68.3808 65.234 68.3248 65.6714 68.3248 66.162L67.4928 65.978C67.4928 65.0927 67.6474 64.3487 67.9568 63.746C68.2661 63.1434 68.6928 62.6874 69.2368 62.378C69.7808 62.0687 70.4048 61.914 71.1088 61.914C71.6261 61.914 72.0768 61.994 72.4608 62.154C72.8501 62.314 73.1781 62.53 73.4448 62.802C73.7168 63.074 73.9354 63.386 74.1008 63.738C74.2661 64.0847 74.3861 64.4554 74.4608 64.85C74.5354 65.2394 74.5728 65.6287 74.5728 66.018V70.77H73.3888ZM67.1408 70.77V59.25H68.2048V65.754H68.3248V70.77H67.1408ZM78.4119 71.89H94.4119V55.89H78.4119V71.89ZM98.575 60.49V59.17H99.751V60.49H98.575ZM98.575 70.77V62.13H99.751V70.77H98.575ZM108.229 70.77V66.362C108.229 65.882 108.184 65.442 108.093 65.042C108.003 64.6367 107.856 64.2847 107.653 63.986C107.456 63.682 107.197 63.4474 106.877 63.282C106.563 63.1167 106.179 63.034 105.725 63.034C105.309 63.034 104.941 63.106 104.621 63.25C104.307 63.394 104.04 63.602 103.821 63.874C103.608 64.1407 103.445 64.466 103.333 64.85C103.221 65.234 103.165 65.6714 103.165 66.162L102.333 65.978C102.333 65.0927 102.488 64.3487 102.797 63.746C103.107 63.1434 103.533 62.6874 104.077 62.378C104.621 62.0687 105.245 61.914 105.949 61.914C106.467 61.914 106.917 61.994 107.301 62.154C107.691 62.314 108.019 62.53 108.285 62.802C108.557 63.074 108.776 63.386 108.941 63.738C109.107 64.0847 109.227 64.4554 109.301 64.85C109.376 65.2394 109.413 65.6287 109.413 66.018V70.77H108.229ZM101.981 70.77V62.13H103.045V64.258H103.165V70.77H101.981ZM114.533 70.77V59.25H115.709V70.77H114.533ZM124.187 70.77V66.362C124.187 65.882 124.142 65.442 124.051 65.042C123.96 64.6367 123.814 64.2847 123.611 63.986C123.414 63.682 123.155 63.4474 122.835 63.282C122.52 63.1167 122.136 63.034 121.683 63.034C121.267 63.034 120.899 63.106 120.579 63.25C120.264 63.394 119.998 63.602 119.779 63.874C119.566 64.1407 119.403 64.466 119.291 64.85C119.179 65.234 119.123 65.6714 119.123 66.162L118.291 65.978C118.291 65.0927 118.446 64.3487 118.755 63.746C119.064 63.1434 119.491 62.6874 120.035 62.378C120.579 62.0687 121.203 61.914 121.907 61.914C122.424 61.914 122.875 61.994 123.259 62.154C123.648 62.314 123.976 62.53 124.243 62.802C124.515 63.074 124.734 63.386 124.899 63.738C125.064 64.0847 125.184 64.4554 125.259 64.85C125.334 65.2394 125.371 65.6287 125.371 66.018V70.77H124.187ZM117.939 70.77V62.13H119.003V64.258H119.123V70.77H117.939ZM130.592 71.01C129.787 71.01 129.099 70.81 128.528 70.41C127.957 70.0047 127.52 69.458 127.216 68.77C126.912 68.082 126.76 67.306 126.76 66.442C126.76 65.5834 126.909 64.81 127.208 64.122C127.512 63.434 127.947 62.89 128.512 62.49C129.077 62.09 129.755 61.89 130.544 61.89C131.355 61.89 132.037 62.0874 132.592 62.482C133.147 62.8767 133.565 63.418 133.848 64.106C134.136 64.7887 134.28 65.5674 134.28 66.442C134.28 67.3007 134.139 68.0767 133.856 68.77C133.573 69.458 133.157 70.0047 132.608 70.41C132.059 70.81 131.387 71.01 130.592 71.01ZM130.712 69.914C131.325 69.914 131.832 69.7647 132.232 69.466C132.632 69.1674 132.931 68.7567 133.128 68.234C133.325 67.706 133.424 67.1087 133.424 66.442C133.424 65.7647 133.325 65.1674 133.128 64.65C132.931 64.1274 132.632 63.7194 132.232 63.426C131.837 63.1327 131.339 62.986 130.736 62.986C130.117 62.986 129.605 63.138 129.2 63.442C128.795 63.746 128.493 64.1594 128.296 64.682C128.104 65.2047 128.008 65.7914 128.008 66.442C128.008 67.098 128.107 67.69 128.304 68.218C128.507 68.7407 128.808 69.154 129.208 69.458C129.608 69.762 130.109 69.914 130.712 69.914ZM133.424 70.77V64.266H133.296V59.25H134.48V70.77H133.424ZM136.724 60.49V59.17H137.9V60.49H136.724ZM136.724 70.77V62.13H137.9V70.77H136.724ZM142.611 71.01C141.96 71.01 141.413 70.8927 140.971 70.658C140.533 70.4234 140.205 70.1114 139.987 69.722C139.768 69.3327 139.659 68.9087 139.659 68.45C139.659 67.9807 139.752 67.5807 139.939 67.25C140.131 66.914 140.389 66.6394 140.715 66.426C141.045 66.2127 141.427 66.05 141.859 65.938C142.296 65.8314 142.779 65.738 143.307 65.658C143.84 65.5727 144.36 65.5007 144.867 65.442C145.379 65.378 145.827 65.3167 146.211 65.258L145.795 65.514C145.811 64.6607 145.645 64.0287 145.299 63.618C144.952 63.2074 144.349 63.002 143.491 63.002C142.899 63.002 142.397 63.1354 141.987 63.402C141.581 63.6687 141.296 64.09 141.131 64.666L139.987 64.33C140.184 63.5567 140.581 62.9567 141.179 62.53C141.776 62.1034 142.552 61.89 143.507 61.89C144.296 61.89 144.965 62.0394 145.515 62.338C146.069 62.6314 146.461 63.058 146.691 63.618C146.797 63.8687 146.867 64.1487 146.899 64.458C146.931 64.7674 146.947 65.082 146.947 65.402V70.77H145.899V68.602L146.203 68.73C145.909 69.4714 145.453 70.0367 144.835 70.426C144.216 70.8154 143.475 71.01 142.611 71.01ZM142.747 69.994C143.296 69.994 143.776 69.8954 144.187 69.698C144.597 69.5007 144.928 69.2314 145.179 68.89C145.429 68.5434 145.592 68.154 145.667 67.722C145.731 67.4447 145.765 67.1407 145.771 66.81C145.776 66.474 145.779 66.2234 145.779 66.058L146.227 66.29C145.827 66.3434 145.392 66.3967 144.923 66.45C144.459 66.5034 144 66.5647 143.547 66.634C143.099 66.7034 142.693 66.786 142.331 66.882C142.085 66.9514 141.848 67.05 141.619 67.178C141.389 67.3007 141.2 67.466 141.051 67.674C140.907 67.882 140.835 68.1407 140.835 68.45C140.835 68.7007 140.896 68.9434 141.019 69.178C141.147 69.4127 141.349 69.6074 141.627 69.762C141.909 69.9167 142.283 69.994 142.747 69.994Z" fill="#EFEFEF"/>
</svg>
